{
	"asset":{
		"generator":"Khronos glTF Blender I/O v5.2.39",
		"version":"2.0"
	},
	"scene":3,
	"scenes":[
		{
			"name":".SceneBoost Preview Settings"
		},
		{
			"name":".SceneBoost Render Settings"
		},
		{
			"name":".SceneBoost Viewport Settings"
		},
		{
			"name":"Scene",
			"nodes":[
				5
			]
		}
	],
	"nodes":[
		{
			"name":"Bone.003",
			"rotation":[
				0,
				1.4210854715202004e-14,
				0,
				1
			],
			"translation":[
				0,
				0.600010097026825,
				0
			]
		},
		{
			"children":[
				0
			],
			"name":"Bone.002",
			"rotation":[
				0,
				1.1920927533992653e-07,
				0,
				1
			],
			"scale":[
				1,
				0.9999999403953552,
				1
			],
			"translation":[
				0,
				0.8212202787399292,
				0
			]
		},
		{
			"children":[
				1
			],
			"name":"Bone.001",
			"translation":[
				0,
				0.05598568171262741,
				0
			]
		},
		{
			"children":[
				2
			],
			"name":"Bone"
		},
		{
			"mesh":0,
			"name":"Clothing",
			"skin":0
		},
		{
			"children":[
				4,
				3
			],
			"name":"Armature"
		}
	],
	"materials":[
		{
			"doubleSided":true,
			"name":"mat_fixture_garment",
			"pbrMetallicRoughness":{
				"baseColorFactor":[
					0.09444557130336761,
					0.13999705016613007,
					0.8000156879425049,
					1
				],
				"metallicFactor":0,
				"roughnessFactor":0.5
			}
		}
	],
	"meshes":[
		{
			"name":"Cylinder.002",
			"primitives":[
				{
					"attributes":{
						"POSITION":0,
						"NORMAL":1,
						"TEXCOORD_0":2,
						"TANGENT":3,
						"JOINTS_0":4,
						"WEIGHTS_0":5
					},
					"indices":6,
					"material":0
				}
			]
		}
	],
	"skins":[
		{
			"inverseBindMatrices":7,
			"joints":[
				3,
				2,
				1,
				0
			],
			"name":"Armature"
		}
	],
	"accessors":[
		{
			"bufferView":0,
			"componentType":5126,
			"count":390,
			"max":[
				0.9744372963905334,
				1.8537936210632324,
				0.9633671045303345
			],
			"min":[
				-1.0083390474319458,
				1.570511817932129,
				-1.4997955560684204
			],
			"type":"VEC3"
		},
		{
			"bufferView":1,
			"componentType":5126,
			"count":390,
			"type":"VEC3"
		},
		{
			"bufferView":2,
			"componentType":5126,
			"count":390,
			"type":"VEC2"
		},
		{
			"bufferView":3,
			"componentType":5126,
			"count":390,
			"type":"VEC4"
		},
		{
			"bufferView":4,
			"componentType":5121,
			"count":390,
			"type":"VEC4"
		},
		{
			"bufferView":5,
			"componentType":5126,
			"count":390,
			"type":"VEC4"
		},
		{
			"bufferView":6,
			"componentType":5123,
			"count":1536,
			"type":"SCALAR"
		},
		{
			"bufferView":7,
			"componentType":5126,
			"count":4,
			"type":"MAT4"
		}
	],
	"bufferViews":[
		{
			"buffer":0,
			"byteLength":4680,
			"byteOffset":0,
			"target":34962
		},
		{
			"buffer":0,
			"byteLength":4680,
			"byteOffset":4680,
			"target":34962
		},
		{
			"buffer":0,
			"byteLength":3120,
			"byteOffset":9360,
			"target":34962
		},
		{
			"buffer":0,
			"byteLength":6240,
			"byteOffset":12480,
			"target":34962
		},
		{
			"buffer":0,
			"byteLength":1560,
			"byteOffset":18720,
			"target":34962
		},
		{
			"buffer":0,
			"byteLength":6240,
			"byteOffset":20280,
			"target":34962
		},
		{
			"buffer":0,
			"byteLength":3072,
			"byteOffset":26520,
			"target":34963
		},
		{
			"buffer":0,
			"byteLength":256,
			"byteOffset":29592
		}
	],
	"buffers":[
		{
			"byteLength":29848,
			"uri":"garment_fixture.bin"
		}
	]
}
