{
	"asset":{
		"generator":"Khronos glTF Blender I/O v5.2.39",
		"version":"2.0"
	},
	"scene":3,
	"scenes":[
		{
			"name":".SceneBoost Preview Settings"
		},
		{
			"name":".SceneBoost Render Settings"
		},
		{
			"name":".SceneBoost Viewport Settings"
		},
		{
			"name":"Scene",
			"nodes":[
				7
			]
		}
	],
	"nodes":[
		{
			"name":"arm_l",
			"rotation":[
				2.572179198523372e-07,
				8.644917670608265e-08,
				-0.7173139452934265,
				0.6967501044273376
			],
			"translation":[
				0,
				0.5122063755989075,
				0
			]
		},
		{
			"name":"arm_r",
			"rotation":[
				-4.934777919629596e-08,
				-1.1940885258354683e-07,
				0.7081066370010376,
				0.7061055302619934
			],
			"translation":[
				0,
				0.5122063755989075,
				0
			]
		},
		{
			"name":"tip",
			"translation":[
				0,
				0.5122063755989075,
				0
			]
		},
		{
			"children":[
				0,
				1,
				2
			],
			"name":"spine_b",
			"translation":[
				0,
				0.42393651604652405,
				0
			]
		},
		{
			"children":[
				3
			],
			"name":"spine_a",
			"rotation":[
				0,
				1.1920928955078125e-07,
				0,
				1
			],
			"translation":[
				0,
				0.2118094265460968,
				0
			]
		},
		{
			"children":[
				4
			],
			"name":"root"
		},
		{
			"mesh":0,
			"name":"Cylinder",
			"skin":0
		},
		{
			"children":[
				6,
				5
			],
			"name":"Armature"
		}
	],
	"materials":[
		{
			"doubleSided":true,
			"name":"FixtureMaterial",
			"pbrMetallicRoughness":{
				"baseColorFactor":[
					0.8000074625015259,
					0.06585966795682907,
					0.07926106452941895,
					1
				],
				"metallicFactor":0,
				"roughnessFactor":0.5
			}
		}
	],
	"meshes":[
		{
			"extras":{
				"targetNames":[
					"DisplaceY",
					"DisplaceX"
				]
			},
			"name":"Cylinder",
			"primitives":[
				{
					"attributes":{
						"POSITION":0,
						"NORMAL":1,
						"TEXCOORD_0":2,
						"TANGENT":3,
						"JOINTS_0":4,
						"JOINTS_1":5,
						"WEIGHTS_0":6,
						"WEIGHTS_1":7
					},
					"indices":8,
					"material":0,
					"targets":[
						{
							"POSITION":9,
							"NORMAL":10
						},
						{
							"POSITION":11,
							"NORMAL":12
						}
					]
				}
			],
			"weights":[
				0,
				0
			]
		}
	],
	"skins":[
		{
			"inverseBindMatrices":13,
			"joints":[
				5,
				4,
				3,
				0,
				1,
				2
			],
			"name":"Armature"
		}
	],
	"accessors":[
		{
			"bufferView":0,
			"componentType":5126,
			"count":425,
			"max":[
				1,
				2,
				0.9999971389770508
			],
			"min":[
				-1.038354516029358,
				0,
				-1.5375713109970093
			],
			"type":"VEC3"
		},
		{
			"bufferView":1,
			"componentType":5126,
			"count":425,
			"type":"VEC3"
		},
		{
			"bufferView":2,
			"componentType":5126,
			"count":425,
			"type":"VEC2"
		},
		{
			"bufferView":3,
			"componentType":5126,
			"count":425,
			"type":"VEC4"
		},
		{
			"bufferView":4,
			"componentType":5121,
			"count":425,
			"type":"VEC4"
		},
		{
			"bufferView":5,
			"componentType":5121,
			"count":425,
			"type":"VEC4"
		},
		{
			"bufferView":6,
			"componentType":5126,
			"count":425,
			"type":"VEC4"
		},
		{
			"bufferView":7,
			"componentType":5126,
			"count":425,
			"type":"VEC4"
		},
		{
			"bufferView":8,
			"componentType":5123,
			"count":1668,
			"type":"SCALAR"
		},
		{
			"componentType":5126,
			"count":425,
			"max":[
				0,
				0,
				0
			],
			"min":[
				0,
				0,
				-0.7674753069877625
			],
			"sparse":{
				"count":107,
				"indices":{
					"bufferView":9,
					"componentType":5123
				},
				"values":{
					"bufferView":10
				}
			},
			"type":"VEC3"
		},
		{
			"componentType":5126,
			"count":425,
			"sparse":{
				"count":159,
				"indices":{
					"bufferView":11,
					"componentType":5123
				},
				"values":{
					"bufferView":12
				}
			},
			"type":"VEC3"
		},
		{
			"componentType":5126,
			"count":425,
			"max":[
				0.2002738118171692,
				0,
				0
			],
			"min":[
				0,
				0,
				0
			],
			"sparse":{
				"count":84,
				"indices":{
					"bufferView":13,
					"componentType":5123
				},
				"values":{
					"bufferView":14
				}
			},
			"type":"VEC3"
		},
		{
			"componentType":5126,
			"count":425,
			"sparse":{
				"count":123,
				"indices":{
					"bufferView":15,
					"componentType":5123
				},
				"values":{
					"bufferView":16
				}
			},
			"type":"VEC3"
		},
		{
			"bufferView":17,
			"componentType":5126,
			"count":6,
			"type":"MAT4"
		}
	],
	"bufferViews":[
		{
			"buffer":0,
			"byteLength":5100,
			"byteOffset":0,
			"target":34962
		},
		{
			"buffer":0,
			"byteLength":5100,
			"byteOffset":5100,
			"target":34962
		},
		{
			"buffer":0,
			"byteLength":3400,
			"byteOffset":10200,
			"target":34962
		},
		{
			"buffer":0,
			"byteLength":6800,
			"byteOffset":13600,
			"target":34962
		},
		{
			"buffer":0,
			"byteLength":1700,
			"byteOffset":20400,
			"target":34962
		},
		{
			"buffer":0,
			"byteLength":1700,
			"byteOffset":22100,
			"target":34962
		},
		{
			"buffer":0,
			"byteLength":6800,
			"byteOffset":23800,
			"target":34962
		},
		{
			"buffer":0,
			"byteLength":6800,
			"byteOffset":30600,
			"target":34962
		},
		{
			"buffer":0,
			"byteLength":3336,
			"byteOffset":37400,
			"target":34963
		},
		{
			"buffer":0,
			"byteLength":214,
			"byteOffset":40736
		},
		{
			"buffer":0,
			"byteLength":1284,
			"byteOffset":40952
		},
		{
			"buffer":0,
			"byteLength":318,
			"byteOffset":42236
		},
		{
			"buffer":0,
			"byteLength":1908,
			"byteOffset":42556
		},
		{
			"buffer":0,
			"byteLength":168,
			"byteOffset":44464
		},
		{
			"buffer":0,
			"byteLength":1008,
			"byteOffset":44632
		},
		{
			"buffer":0,
			"byteLength":246,
			"byteOffset":45640
		},
		{
			"buffer":0,
			"byteLength":1476,
			"byteOffset":45888
		},
		{
			"buffer":0,
			"byteLength":384,
			"byteOffset":47364
		}
	],
	"buffers":[
		{
			"byteLength":47748,
			"uri":"rig_fixture.bin"
		}
	]
}
